<svg width="40.000000" height="40.000000" viewBox="0 0 40 40" fill="none" xmlns="http://www.w3.org/2000/svg" xmlns:xlink="http://www.w3.org/1999/xlink">
	<desc>
			Created with Pixso.
	</desc>
	<defs>
		<clipPath id="clip83_30043">
			<rect id="Icon" width="40.000000" height="40.000000" transform="translate(-0.667969 0.000000)" fill="white" fill-opacity="0"/>
		</clipPath>
	</defs>
	<g clip-path="url(#clip83_30043)">
		<path id="Vector" d="M19.33 5C15.87 5 13.08 7.79 13.08 11.25C13.08 14.7 15.87 17.5 19.33 17.5C22.78 17.5 25.58 14.7 25.58 11.25C25.58 7.79 22.78 5 19.33 5ZM3.08 16.25C3.08 13.48 5.32 11.25 8.08 11.25C10.84 11.25 13.08 13.48 13.08 16.25C13.08 19.01 10.84 21.25 8.08 21.25C5.32 21.25 3.08 19.01 3.08 16.25ZM30.58 11.25C27.82 11.25 25.58 13.48 25.58 16.25C25.58 19.01 27.82 21.25 30.58 21.25C33.34 21.25 35.58 19.01 35.58 16.25C35.58 13.48 33.34 11.25 30.58 11.25ZM19.33 20C15.34 20 11.84 22.07 9.84 25.19C8.46 27.35 7.87 29.95 8.15 32.49C8.19 32.89 8.42 33.24 8.76 33.44C11.88 35.22 15.48 36.25 19.33 36.25C23.17 36.25 26.78 35.22 29.89 33.44C30.23 33.24 30.46 32.89 30.51 32.49C30.79 29.95 30.19 27.35 28.81 25.19C26.82 22.07 23.32 20 19.33 20ZM7.8 23.75C7.78 23.78 7.76 23.81 7.74 23.84C6.13 26.36 5.39 29.36 5.62 32.31C4.6 32.16 3.62 31.91 2.68 31.58L2.49 31.51C2.14 31.39 1.89 31.07 1.86 30.7L1.85 30.5C1.83 30.33 1.83 30.16 1.83 30C1.83 26.64 4.48 23.9 7.8 23.75ZM30.92 23.85C32.53 26.36 33.26 29.36 33.04 32.31C34.05 32.16 35.03 31.91 35.98 31.58L36.17 31.51C36.52 31.39 36.76 31.07 36.79 30.7L36.81 30.5C36.82 30.33 36.83 30.16 36.83 30C36.83 26.64 34.18 23.9 30.86 23.75C30.88 23.78 30.9 23.81 30.92 23.85Z" fill="#9EFF00" fill-opacity="1.000000" fill-rule="evenodd"/>
	</g>
</svg>
