<svg width="40.000000" height="40.000000" viewBox="0 0 40 40" fill="none" xmlns="http://www.w3.org/2000/svg" xmlns:xlink="http://www.w3.org/1999/xlink">
	<desc>
			Created with Pixso.
	</desc>
	<defs>
		<clipPath id="clip83_29828">
			<rect id="paintbrush.fill" width="35.345284" height="40.012714" transform="translate(2.191406 0.000000)" fill="white" fill-opacity="0"/>
		</clipPath>
		<clipPath id="clip83_29827">
			<rect id="Icon" width="40.000000" height="40.000000" transform="translate(-0.667969 0.000000)" fill="white" fill-opacity="0"/>
		</clipPath>
	</defs>
	<g clip-path="url(#clip83_29827)">
		<rect id="paintbrush.fill" width="35.345284" height="40.012714" transform="translate(2.191406 0.000000)" fill="#FFFFFF" fill-opacity="0"/>
		<g clip-path="url(#clip83_29828)">
			<g opacity="0.000000">
				<path id="Vector" d="M2.19 0L37.53 0L37.53 40.01L2.19 40.01L2.19 0Z" fill="#9EFF00" fill-opacity="1.000000" fill-rule="evenodd"/>
			</g>
			<path id="Vector" d="M4.17 37.76C6.79 40.38 10.17 40.42 12.75 37.84C14.8 35.78 16.8 31.13 18.32 28.8L22.37 32.87C23.61 34.12 25.12 34.12 26.29 32.92L27.73 31.48C28.95 30.24 28.94 28.83 27.68 27.58L14.37 14.25C13.1 13 11.67 12.98 10.45 14.2L9.01 15.64C7.81 16.85 7.81 18.3 9.06 19.56L13.12 23.61C10.8 25.13 6.17 27.12 4.09 29.18C1.53 31.76 1.55 35.16 4.17 37.76ZM8.64 35.58C7.49 35.58 6.57 34.64 6.57 33.5C6.57 32.36 7.49 31.44 8.64 31.44C9.78 31.44 10.7 32.36 10.7 33.5C10.7 34.64 9.78 35.58 8.64 35.58ZM29.67 26.81L36.17 20.31C38.03 18.45 37.98 16.24 36.08 14.32L35.23 13.45C33.49 15.71 28.51 18.35 27.56 17.4C27.41 17.25 27.39 16.95 27.61 16.71C29.64 14.69 30.96 12.71 31.26 9.5L22.66 0.87C21.07 -0.72 18.3 -0.2 17.55 2.82C16.5 7.1 15.54 9.6 14.5 11.66L29.67 26.81Z" fill="#9EFF00" fill-opacity="1.000000" fill-rule="nonzero"/>
		</g>
	</g>
</svg>
