<svg width="178.000000" height="60.000000" viewBox="0 0 178 60" fill="none" xmlns="http://www.w3.org/2000/svg" xmlns:xlink="http://www.w3.org/1999/xlink">
	<desc>
			Created with Pixso.
	</desc>
	<defs>
		<clipPath id="clip19_567">
			<rect id="Logo" rx="9.377156" width="60.281738" height="60.000000" fill="white" fill-opacity="0"/>
		</clipPath>
	</defs>
	<rect id="Logo" rx="9.377156" width="60.281738" height="60.000000" fill="#9EFF00" fill-opacity="1.000000"/>
	<g clip-path="url(#clip19_567)">
		<path id="Rectangle 107" d="M10.98 18.71L30.14 30L30.14 51.54L10.98 40.6L10.98 18.71Z" fill="#1A1A1A" fill-opacity="1.000000" fill-rule="evenodd"/>
		<path id="Vector 12 (Stroke)" d="M31.83 29.98L31.83 48.63L47.6 39.62L47.6 20.68L31.83 29.98ZM49.29 40.6L30.14 51.54L30.14 30L10.98 18.71L30.14 8.45L49.29 18.71L49.29 40.6ZM46.71 19.24L30.14 10.36L14.43 18.78L30.97 28.52L46.71 19.24Z" fill="#1A1A1A" fill-opacity="1.000000" fill-rule="evenodd"/>
	</g>
	<path id="SquareUp" d="M76.6 20C79.63 20 81.93 21.64 82.51 24.3L79.48 24.92C79.25 23.52 78.03 22.6 76.54 22.6C75.02 22.6 74.11 23.45 74.11 24.45C74.11 25.21 74.44 25.74 75.6 25.97L78.81 26.61C81.24 27.13 82.73 28.58 82.73 30.89C82.73 33.79 80.35 35.59 76.8 35.59C73.68 35.59 70.94 34.15 70.56 31.16L73.75 30.51C74.15 32.21 75.4 32.94 77.09 32.94C78.83 32.94 79.74 32.12 79.74 31.05C79.74 30.2 79.34 29.69 78.01 29.42L74.84 28.82C73.06 28.44 70.92 27.46 70.92 24.54C70.92 21.87 73.1 20 76.6 20ZM162.65 20.33L162.65 28.58C162.65 32.76 160.09 35.59 156.24 35.59C152.29 35.59 149.66 32.76 149.66 28.58L149.66 20.33L152.69 20.33L152.69 28.58C152.69 31.07 154.1 32.7 156.24 32.7C158.26 32.7 159.62 31.07 159.62 28.58L159.62 20.33L162.65 20.33ZM96.58 24.14L96.58 39.05L93.64 39.05L93.64 34.39C92.71 35.15 91.48 35.59 89.97 35.59C87.13 35.59 84.5 33.21 84.5 29.71C84.5 26.21 87.13 23.81 89.97 23.81C91.48 23.81 92.71 24.25 93.64 25.03L93.64 24.14L96.58 24.14ZM124.51 24.14L124.51 35.26L121.57 35.26L121.57 34.39C120.63 35.15 119.4 35.59 117.89 35.59C115.06 35.59 112.43 33.21 112.43 29.71C112.43 26.21 115.06 23.81 117.89 23.81C119.4 23.81 120.63 24.25 121.57 25.03L121.57 24.14L124.51 24.14ZM147.56 29.49L147.56 30.49L139.09 30.49C139.38 32.1 140.52 33.08 141.88 33.08C142.75 33.08 143.84 32.97 144.64 31.61L147.27 32.16C146.29 34.48 144.31 35.59 141.88 35.59C138.73 35.59 136.17 33.21 136.17 29.71C136.17 26.21 138.73 23.81 141.92 23.81C144.89 23.81 147.45 26.1 147.56 29.49ZM172.26 23.81C175.09 23.81 177.72 26.21 177.72 29.71C177.72 33.21 175.09 35.59 172.26 35.59C170.74 35.59 169.52 35.15 168.58 34.39L168.58 39.05L165.64 39.05L165.64 24.14L168.58 24.14L168.58 25.03C169.52 24.25 170.74 23.81 172.26 23.81ZM134.55 23.98C134.84 23.98 135.06 23.98 135.33 24.07L135.17 26.9L134.53 26.9C131.81 26.9 130.56 28.58 130.56 31.67L130.56 35.26L127.62 35.26L127.62 24.14L130.56 24.14L130.56 26.17C131.45 24.88 132.74 23.98 134.55 23.98ZM110.19 24.14L110.19 35.26L107.25 35.26L107.25 34.26C106.38 35.13 105.22 35.59 103.75 35.59C101.08 35.59 99.3 33.68 99.3 30.92L99.3 24.14L102.24 24.14L102.24 30.29C102.24 31.85 103.13 32.9 104.49 32.9C106.16 32.9 107.25 31.78 107.25 29.07L107.25 24.14L110.19 24.14ZM90.48 33.03C92.06 33.03 93.64 31.76 93.64 29.71C93.64 27.66 92.06 26.37 90.48 26.37C88.69 26.37 87.36 27.66 87.36 29.71C87.36 31.76 88.69 33.03 90.48 33.03ZM118.4 33.03C119.98 33.03 121.57 31.76 121.57 29.71C121.57 27.66 119.98 26.37 118.4 26.37C116.62 26.37 115.28 27.66 115.28 29.71C115.28 31.76 116.62 33.03 118.4 33.03ZM141.92 26.37C140.81 26.37 139.54 27.04 139.18 28.42L144.55 28.42C144.17 26.99 143.1 26.37 141.92 26.37ZM171.74 33.03C173.53 33.03 174.86 31.76 174.86 29.71C174.86 27.66 173.53 26.37 171.74 26.37C170.16 26.37 168.58 27.66 168.58 29.71C168.58 31.76 170.16 33.03 171.74 33.03Z" fill="#FFFFFF" fill-opacity="1.000000" fill-rule="evenodd"/>
</svg>
