<svg width="34" height="34" viewBox="0 0 34 34" fill="none" xmlns="http://www.w3.org/2000/svg">
<path d="M18.2748 8.0748C18.2748 7.37064 17.704 6.7998 16.9998 6.7998C16.2956 6.7998 15.7248 7.37064 15.7248 8.0748V15.7248H8.0748C7.37064 15.7248 6.7998 16.2956 6.7998 16.9998C6.7998 17.704 7.37064 18.2748 8.0748 18.2748L15.7248 18.2748V25.9248C15.7248 26.629 16.2956 27.1998 16.9998 27.1998C17.704 27.1998 18.2748 26.629 18.2748 25.9248V18.2748L25.9248 18.2748C26.629 18.2748 27.1998 17.704 27.1998 16.9998C27.1998 16.2956 26.629 15.7248 25.9248 15.7248H18.2748V8.0748Z" fill="white"/>
</svg>
